<?xml version="1.0" standalone="no"?>
<!DOCTYPE svg PUBLIC "-//W3C//DTD SVG 20010904//EN"
 "http://www.w3.org/TR/2001/REC-SVG-20010904/DTD/svg10.dtd">
<svg version="1.0" xmlns="http://www.w3.org/2000/svg"
 width="632.000000pt" height="196.000000pt" viewBox="0 0 632.000000 196.000000"
 preserveAspectRatio="xMidYMid meet">

<g transform="translate(0.000000,196.000000) scale(0.100000,-0.100000)"
fill="#000000" stroke="none">
<path d="M2680 1478 c-19 -5 -52 -14 -72 -19 l-38 -10 0 -469 0 -470 80 0 80
0 0 111 c0 109 0 111 32 150 17 22 35 38 40 37 4 -2 50 -68 102 -148 l94 -145
97 -3 c76 -2 96 0 92 10 -2 7 -60 99 -129 203 -68 105 -127 195 -131 201 -3 6
43 65 104 133 60 67 109 126 109 132 0 5 -42 9 -93 9 l-93 0 -110 -127 -109
-127 -3 272 c-1 150 -6 272 -10 271 -4 0 -23 -5 -42 -11z"/>
<path d="M4249 1445 c-52 -28 -61 -96 -20 -146 27 -33 100 -34 133 -1 31 30
32 102 2 132 -26 27 -82 34 -115 15z"/>
<path d="M570 980 l0 -470 85 0 85 0 0 169 0 168 103 6 c117 6 190 27 242 70
120 99 143 309 44 421 -71 80 -171 106 -411 106 l-148 0 0 -470z m367 293 c55
-27 77 -62 75 -125 -2 -94 -60 -138 -194 -146 l-78 -5 0 153 0 153 80 -6 c47
-3 95 -13 117 -24z"/>
<path d="M3290 980 l0 -470 85 0 85 0 0 210 0 210 180 0 180 0 0 -210 0 -210
85 0 85 0 0 470 0 471 -82 -3 -83 -3 -3 -182 -2 -183 -180 0 -180 0 0 185 0
185 -85 0 -85 0 0 -470z"/>
<path d="M1477 1200 c-98 -25 -182 -95 -226 -189 -23 -50 -26 -68 -26 -171 0
-134 16 -181 85 -250 69 -69 116 -85 250 -85 116 0 188 15 233 49 17 13 17 17
-13 75 -16 34 -31 61 -33 61 -1 0 -24 -11 -51 -25 -125 -63 -280 -10 -302 104
l-6 31 240 0 c170 0 243 3 248 11 11 18 8 139 -5 185 -22 81 -110 171 -190
194 -53 16 -160 21 -204 10z m157 -144 c36 -15 71 -57 81 -99 l7 -27 -161 0
c-112 0 -161 3 -161 11 0 6 10 29 23 52 37 67 133 96 211 63z"/>
<path d="M2283 1200 c-17 -4 -48 -17 -68 -29 -45 -26 -45 -26 -45 4 0 25 -1
25 -80 25 l-80 0 0 -345 0 -345 79 0 79 0 4 218 c3 197 5 221 24 257 39 75
106 101 180 70 l35 -15 30 65 c16 36 29 69 29 74 0 25 -118 38 -187 21z"/>
<path d="M5463 1200 c-59 -12 -113 -42 -162 -91 -76 -76 -106 -169 -99 -298 8
-135 67 -228 178 -280 50 -24 66 -26 175 -25 101 0 127 3 165 21 77 37 75 33
41 102 -17 33 -34 61 -37 61 -2 0 -18 -10 -34 -22 -24 -17 -47 -22 -112 -25
-72 -3 -88 -1 -122 19 -41 24 -70 63 -81 111 l-7 27 245 0 246 0 6 54 c13 100
-22 201 -92 267 -78 75 -188 103 -310 79z m157 -148 c37 -18 80 -74 80 -103 0
-18 -11 -19 -161 -19 -143 0 -160 2 -155 16 3 9 6 19 6 24 0 17 55 73 85 86
42 19 104 17 145 -4z"/>
<path d="M4127 1194 c-4 -4 -7 -36 -7 -71 l0 -63 45 0 45 0 0 -275 0 -275 85
0 85 0 -2 343 -3 342 -121 3 c-66 1 -123 -1 -127 -4z"/>
<path d="M4480 1188 c0 -7 67 -164 148 -348 l149 -335 34 -3 34 -3 157 346
c108 240 153 348 144 351 -7 3 -46 4 -86 2 l-74 -3 -33 -75 c-18 -41 -57 -133
-87 -204 l-53 -129 -80 204 -80 204 -87 3 c-65 2 -86 0 -86 -10z"/>
</g>
</svg>
